# xmcd
#
# Track frame offsets:
#	150
#	12203
#	29741
#	47251
#	63912
#	78869
#	95518
#	112320
#	133148
#	155239
#	172320
#	188141
#
# Disc length: 2790 seconds
# Revision: 0
# Processed by: cddbd v1.5.2PL0 Copyright (c) Steve Scherf et al.
# Submitted via: dBpowerAMP V12.0
#
DISCID=a60ae40c
DTITLE=The Oak Ridge Boys - It’s Only Natural
DYEAR=2011
DGENRE=Country
TTITLE0=What'Cha Gonna Do?
TTITLE1=True Heart
TTITLE2=Before I Die
TTITLE3=Gonna Take a Lot of River
TTITLE4=No Matter How High
TTITLE5=The Shade
TTITLE6=Elvira
TTITLE7=Louisana Red Dirt Highway
TTITLE8=Beyond Those Years
TTITLE9=Wish You Could Have Been There
TTITLE10=Lucky Moon
TTITLE11=Sacrifice . . . for Me
EXTD=
EXTT0=
EXTT1=
EXTT2=
EXTT3=
EXTT4=
EXTT5=
EXTT6=
EXTT7=
EXTT8=
EXTT9=
EXTT10=
EXTT11=
PLAYORDER=
